<svg width="222" height="31" viewBox="0 0 222 31" fill="none" xmlns="http://www.w3.org/2000/svg">
<path d="M12.0568 2.09V4.31H2.96676V11.36H10.3468V13.58H2.96676V23H0.236758V2.09H12.0568ZM29.9339 6.56V23H27.2039V20.57C26.6839 21.41 25.9539 22.07 25.0139 22.55C24.0939 23.01 23.0739 23.24 21.9539 23.24C20.6739 23.24 19.5239 22.98 18.5039 22.46C17.4839 21.92 16.6739 21.12 16.0739 20.06C15.4939 19 15.2039 17.71 15.2039 16.19V6.56H17.9039V15.83C17.9039 17.45 18.3139 18.7 19.1339 19.58C19.9539 20.44 21.0739 20.87 22.4939 20.87C23.9539 20.87 25.1039 20.42 25.9439 19.52C26.7839 18.62 27.2039 17.31 27.2039 15.59V6.56H29.9339ZM37.2734 9.23C37.7534 8.29 38.4334 7.56 39.3134 7.04C40.2134 6.52 41.3034 6.26 42.5834 6.26V9.08H41.8634C38.8034 9.08 37.2734 10.74 37.2734 14.06V23H34.5434V6.56H37.2734V9.23ZM53.7448 6.26C55.7448 6.26 57.3648 6.87 58.6048 8.09C59.8448 9.29 60.4648 11.03 60.4648 13.31V23H57.7648V13.7C57.7648 12.06 57.3548 10.81 56.5348 9.95C55.7148 9.07 54.5948 8.63 53.1748 8.63C51.7348 8.63 50.5848 9.08 49.7248 9.98C48.8848 10.88 48.4648 12.19 48.4648 13.91V23H45.7348V6.56H48.4648V8.9C49.0048 8.06 49.7348 7.41 50.6548 6.95C51.5948 6.49 52.6248 6.26 53.7448 6.26ZM66.3343 3.89C65.8143 3.89 65.3743 3.71 65.0143 3.35C64.6543 2.99 64.4743 2.55 64.4743 2.03C64.4743 1.51 64.6543 1.07 65.0143 0.709999C65.3743 0.349999 65.8143 0.169999 66.3343 0.169999C66.8343 0.169999 67.2543 0.349999 67.5943 0.709999C67.9543 1.07 68.1343 1.51 68.1343 2.03C68.1343 2.55 67.9543 2.99 67.5943 3.35C67.2543 3.71 66.8343 3.89 66.3343 3.89ZM67.6543 6.56V23H64.9243V6.56H67.6543ZM75.6371 8.81V18.5C75.6371 19.3 75.8071 19.87 76.1471 20.21C76.4871 20.53 77.0771 20.69 77.9171 20.69H79.9271V23H77.4671C75.9471 23 74.8071 22.65 74.0471 21.95C73.2871 21.25 72.9071 20.1 72.9071 18.5V8.81H70.7771V6.56H72.9071V2.42H75.6371V6.56H79.9271V8.81H75.6371ZM97.8148 6.56V23H95.0848V20.57C94.5648 21.41 93.8348 22.07 92.8948 22.55C91.9748 23.01 90.9548 23.24 89.8348 23.24C88.5548 23.24 87.4048 22.98 86.3848 22.46C85.3648 21.92 84.5548 21.12 83.9548 20.06C83.3748 19 83.0848 17.71 83.0848 16.19V6.56H85.7848V15.83C85.7848 17.45 86.1948 18.7 87.0148 19.58C87.8348 20.44 88.9548 20.87 90.3748 20.87C91.8348 20.87 92.9848 20.42 93.8248 19.52C94.6648 18.62 95.0848 17.31 95.0848 15.59V6.56H97.8148ZM105.154 9.23C105.634 8.29 106.314 7.56 107.194 7.04C108.094 6.52 109.184 6.26 110.464 6.26V9.08H109.744C106.684 9.08 105.154 10.74 105.154 14.06V23H102.424V6.56H105.154V9.23ZM128.616 14.15C128.616 14.67 128.586 15.22 128.526 15.8H115.386C115.486 17.42 116.036 18.69 117.036 19.61C118.056 20.51 119.286 20.96 120.726 20.96C121.906 20.96 122.886 20.69 123.666 20.15C124.466 19.59 125.026 18.85 125.346 17.93H128.286C127.846 19.51 126.966 20.8 125.646 21.8C124.326 22.78 122.686 23.27 120.726 23.27C119.166 23.27 117.766 22.92 116.526 22.22C115.306 21.52 114.346 20.53 113.646 19.25C112.946 17.95 112.596 16.45 112.596 14.75C112.596 13.05 112.936 11.56 113.616 10.28C114.296 9 115.246 8.02 116.466 7.34C117.706 6.64 119.126 6.29 120.726 6.29C122.286 6.29 123.666 6.63 124.866 7.31C126.066 7.99 126.986 8.93 127.626 10.13C128.286 11.31 128.616 12.65 128.616 14.15ZM125.796 13.58C125.796 12.54 125.566 11.65 125.106 10.91C124.646 10.15 124.016 9.58 123.216 9.2C122.436 8.8 121.566 8.6 120.606 8.6C119.226 8.6 118.046 9.04 117.066 9.92C116.106 10.8 115.556 12.02 115.416 13.58H125.796Z" fill="url(#paint0_linear)"/>
<path d="M146.037 23.27C144.777 23.27 143.647 23.06 142.647 22.64C141.647 22.2 140.857 21.6 140.277 20.84C139.697 20.06 139.377 19.17 139.317 18.17H142.137C142.217 18.99 142.597 19.66 143.277 20.18C143.977 20.7 144.887 20.96 146.007 20.96C147.047 20.96 147.867 20.73 148.467 20.27C149.067 19.81 149.367 19.23 149.367 18.53C149.367 17.81 149.047 17.28 148.407 16.94C147.767 16.58 146.777 16.23 145.437 15.89C144.217 15.57 143.217 15.25 142.437 14.93C141.677 14.59 141.017 14.1 140.457 13.46C139.917 12.8 139.647 11.94 139.647 10.88C139.647 10.04 139.897 9.27 140.397 8.57C140.897 7.87 141.607 7.32 142.527 6.92C143.447 6.5 144.497 6.29 145.677 6.29C147.497 6.29 148.967 6.75 150.087 7.67C151.207 8.59 151.807 9.85 151.887 11.45H149.157C149.097 10.59 148.747 9.9 148.107 9.38C147.487 8.86 146.647 8.6 145.587 8.6C144.607 8.6 143.827 8.81 143.247 9.23C142.667 9.65 142.377 10.2 142.377 10.88C142.377 11.42 142.547 11.87 142.887 12.23C143.247 12.57 143.687 12.85 144.207 13.07C144.747 13.27 145.487 13.5 146.427 13.76C147.607 14.08 148.567 14.4 149.307 14.72C150.047 15.02 150.677 15.48 151.197 16.1C151.737 16.72 152.017 17.53 152.037 18.53C152.037 19.43 151.787 20.24 151.287 20.96C150.787 21.68 150.077 22.25 149.157 22.67C148.257 23.07 147.217 23.27 146.037 23.27ZM159.221 8.81V18.5C159.221 19.3 159.391 19.87 159.731 20.21C160.071 20.53 160.661 20.69 161.501 20.69H163.511V23H161.051C159.531 23 158.391 22.65 157.631 21.95C156.871 21.25 156.491 20.1 156.491 18.5V8.81H154.361V6.56H156.491V2.42H159.221V6.56H163.511V8.81H159.221ZM180.979 6.56L171.079 30.74H168.259L171.499 22.82L164.869 6.56H167.899L173.059 19.88L178.159 6.56H180.979ZM186.453 0.8V23H183.723V0.8H186.453ZM206.106 14.15C206.106 14.67 206.076 15.22 206.016 15.8H192.876C192.976 17.42 193.526 18.69 194.526 19.61C195.546 20.51 196.776 20.96 198.216 20.96C199.396 20.96 200.376 20.69 201.156 20.15C201.956 19.59 202.516 18.85 202.836 17.93H205.776C205.336 19.51 204.456 20.8 203.136 21.8C201.816 22.78 200.176 23.27 198.216 23.27C196.656 23.27 195.256 22.92 194.016 22.22C192.796 21.52 191.836 20.53 191.136 19.25C190.436 17.95 190.086 16.45 190.086 14.75C190.086 13.05 190.426 11.56 191.106 10.28C191.786 9 192.736 8.02 193.956 7.34C195.196 6.64 196.616 6.29 198.216 6.29C199.776 6.29 201.156 6.63 202.356 7.31C203.556 7.99 204.476 8.93 205.116 10.13C205.776 11.31 206.106 12.65 206.106 14.15ZM203.286 13.58C203.286 12.54 203.056 11.65 202.596 10.91C202.136 10.15 201.506 9.58 200.706 9.2C199.926 8.8 199.056 8.6 198.096 8.6C196.716 8.6 195.536 9.04 194.556 9.92C193.596 10.8 193.046 12.02 192.906 13.58H203.286ZM215.529 23.27C214.269 23.27 213.139 23.06 212.139 22.64C211.139 22.2 210.349 21.6 209.769 20.84C209.189 20.06 208.869 19.17 208.809 18.17H211.629C211.709 18.99 212.089 19.66 212.769 20.18C213.469 20.7 214.379 20.96 215.499 20.96C216.539 20.96 217.359 20.73 217.959 20.27C218.559 19.81 218.859 19.23 218.859 18.53C218.859 17.81 218.539 17.28 217.899 16.94C217.259 16.58 216.269 16.23 214.929 15.89C213.709 15.57 212.709 15.25 211.929 14.93C211.169 14.59 210.509 14.1 209.949 13.46C209.409 12.8 209.139 11.94 209.139 10.88C209.139 10.04 209.389 9.27 209.889 8.57C210.389 7.87 211.099 7.32 212.019 6.92C212.939 6.5 213.989 6.29 215.169 6.29C216.989 6.29 218.459 6.75 219.579 7.67C220.699 8.59 221.299 9.85 221.379 11.45H218.649C218.589 10.59 218.239 9.9 217.599 9.38C216.979 8.86 216.139 8.6 215.079 8.6C214.099 8.6 213.319 8.81 212.739 9.23C212.159 9.65 211.869 10.2 211.869 10.88C211.869 11.42 212.039 11.87 212.379 12.23C212.739 12.57 213.179 12.85 213.699 13.07C214.239 13.27 214.979 13.5 215.919 13.76C217.099 14.08 218.059 14.4 218.799 14.72C219.539 15.02 220.169 15.48 220.689 16.1C221.229 16.72 221.509 17.53 221.529 18.53C221.529 19.43 221.279 20.24 220.779 20.96C220.279 21.68 219.569 22.25 218.649 22.67C217.749 23.07 216.709 23.27 215.529 23.27Z" fill="black"/>
<defs>
<linearGradient id="paint0_linear" x1="110.5" y1="-8" x2="110.5" y2="32" gradientUnits="userSpaceOnUse">
<stop stop-color="#FC7900"/>
<stop offset="1" stop-color="#673100" stop-opacity="0"/>
</linearGradient>
</defs>
</svg>
